<?xml version="1.0" encoding="utf-8"?>
<!-- Generator: Adobe Illustrator 16.0.0, SVG Export Plug-In . SVG Version: 6.00 Build 0)  -->
<!DOCTYPE svg PUBLIC "-//W3C//DTD SVG 1.1//EN" "http://www.w3.org/Graphics/SVG/1.1/DTD/svg11.dtd">
<svg version="1.1" id="Layer_1" xmlns="http://www.w3.org/2000/svg" xmlns:xlink="http://www.w3.org/1999/xlink" x="0px" y="0px"
	 width="283.464px" height="283.464px" viewBox="0 0 283.464 283.464" enable-background="new 0 0 283.464 283.464"
	 xml:space="preserve">
<linearGradient id="SVGID_1_" gradientUnits="userSpaceOnUse" x1="275.9995" y1="-213.2681" x2="559.4644" y2="-213.2681" gradientTransform="matrix(1 0 0 -1 -276 -71.5361)">
	<stop  offset="0" style="stop-color:#2E368F"/>
	<stop  offset="1" style="stop-color:#2AAAE2"/>
</linearGradient>
<rect display="none" fill="url(#SVGID_1_)" width="283.464" height="283.464"/>
<g display="none">
	
		<rect x="52.225" y="187.009" display="inline" fill="none" stroke="#A43E97" stroke-width="0.7515" stroke-miterlimit="10" width="17.008" height="22.678"/>
	
		<rect x="70.232" y="187.009" display="inline" fill="none" stroke="#A43E97" stroke-width="0.7515" stroke-miterlimit="10" width="17.008" height="22.678"/>
	
		<rect x="88.225" y="187.009" display="inline" fill="none" stroke="#A43E97" stroke-width="0.7515" stroke-miterlimit="10" width="17.008" height="22.678"/>
	
		<rect x="106.232" y="187.009" display="inline" fill="none" stroke="#A43E97" stroke-width="0.7515" stroke-miterlimit="10" width="17.008" height="22.678"/>
	
		<rect x="124.225" y="187.009" display="inline" fill="none" stroke="#A43E97" stroke-width="0.7515" stroke-miterlimit="10" width="17.008" height="22.678"/>
	
		<rect x="142.232" y="187.009" display="inline" fill="none" stroke="#A43E97" stroke-width="0.7515" stroke-miterlimit="10" width="17.007" height="22.678"/>
	
		<rect x="160.224" y="187.009" display="inline" fill="none" stroke="#A43E97" stroke-width="0.7515" stroke-miterlimit="10" width="17.008" height="22.678"/>
	
		<rect x="178.232" y="187.009" display="inline" fill="none" stroke="#A43E97" stroke-width="0.7515" stroke-miterlimit="10" width="17.008" height="22.678"/>
	
		<rect x="196.224" y="187.009" display="inline" fill="none" stroke="#A43E97" stroke-width="0.7515" stroke-miterlimit="10" width="17.008" height="22.678"/>
	
		<rect x="214.232" y="187.009" display="inline" fill="none" stroke="#A43E97" stroke-width="0.7515" stroke-miterlimit="10" width="17.008" height="22.678"/>
</g>
<g>
	<g>
		
			<linearGradient id="SVGID_2_" gradientUnits="userSpaceOnUse" x1="426.7554" y1="17.9165" x2="437.1479" y2="17.9165" gradientTransform="matrix(-0.7071 0.7071 -0.7071 -0.7071 374.9649 -150.6094)">
			<stop  offset="0" style="stop-color:#F59FBA"/>
			<stop  offset="1" style="stop-color:#EF5080"/>
		</linearGradient>
		<path fill="url(#SVGID_2_)" d="M53.188,145.83c2.109,2.106,5.461,2.17,7.491,0.142c2.029-2.03,1.967-5.384-0.142-7.491
			c-2.105-2.106-5.461-2.172-7.491-0.142C51.017,140.366,51.083,143.722,53.188,145.83z"/>
		<g>
			
				<linearGradient id="SVGID_3_" gradientUnits="userSpaceOnUse" x1="430.2495" y1="25.6616" x2="448.8237" y2="25.6616" gradientTransform="matrix(-0.7071 0.7071 -0.7071 -0.7071 374.9649 -150.6094)">
				<stop  offset="0" style="stop-color:#F59FBA"/>
				<stop  offset="1" style="stop-color:#EF5080"/>
			</linearGradient>
			<path fill="url(#SVGID_3_)" d="M45.902,155.054l1.766-1.766c-6.135-6.136-6.027-16.225,0.242-22.493l-1.766-1.767
				C38.899,136.273,38.793,147.946,45.902,155.054z"/>
		</g>
		<g>
			
				<linearGradient id="SVGID_4_" gradientUnits="userSpaceOnUse" x1="425.1538" y1="29.7412" x2="461.0542" y2="29.7412" gradientTransform="matrix(-0.7071 0.7071 -0.7071 -0.7071 374.9649 -150.6094)">
				<stop  offset="0" style="stop-color:#F59FBA"/>
				<stop  offset="1" style="stop-color:#EF5080"/>
			</linearGradient>
			<path fill="url(#SVGID_4_)" d="M40.691,167.139l1.767-1.767c-13.105-13.105-13.175-34.364-0.152-47.387l-1.766-1.766
				C26.545,130.217,26.611,153.059,40.691,167.139z"/>
		</g>
	</g>
	<g>
		
			<linearGradient id="SVGID_5_" gradientUnits="userSpaceOnUse" x1="332.1665" y1="-39.0068" x2="342.5591" y2="-39.0068" gradientTransform="matrix(0.7071 0.7071 0.7071 -0.7071 -153.7862 -123.8712)">
			<stop  offset="0" style="stop-color:#F59FBA"/>
			<stop  offset="1" style="stop-color:#EF5080"/>
		</linearGradient>
		<path fill="url(#SVGID_5_)" d="M60.856,145.934c-2.107,2.106-5.461,2.17-7.49,0.142c-2.03-2.029-1.968-5.384,0.14-7.491
			c2.106-2.105,5.46-2.17,7.49-0.14C63.026,140.472,62.962,143.83,60.856,145.934z"/>
		<g>
			
				<linearGradient id="SVGID_6_" gradientUnits="userSpaceOnUse" x1="335.6626" y1="-31.2617" x2="354.2368" y2="-31.2617" gradientTransform="matrix(0.7071 0.7071 0.7071 -0.7071 -153.7862 -123.8712)">
				<stop  offset="0" style="stop-color:#F59FBA"/>
				<stop  offset="1" style="stop-color:#EF5080"/>
			</linearGradient>
			<path fill="url(#SVGID_6_)" d="M68.144,155.16l-1.766-1.767c6.132-6.132,6.025-16.221-0.244-22.491l1.766-1.766
				C75.142,136.379,75.252,148.05,68.144,155.16z"/>
		</g>
		<g>
			
				<linearGradient id="SVGID_7_" gradientUnits="userSpaceOnUse" x1="330.5669" y1="-27.1831" x2="366.4634" y2="-27.1831" gradientTransform="matrix(0.7071 0.7071 0.7071 -0.7071 -153.7862 -123.8712)">
				<stop  offset="0" style="stop-color:#F59FBA"/>
				<stop  offset="1" style="stop-color:#EF5080"/>
			</linearGradient>
			<path fill="url(#SVGID_7_)" d="M73.352,167.244l-1.766-1.766c13.106-13.105,13.172-34.363,0.151-47.384l1.766-1.766
				C87.497,130.325,87.433,153.164,73.352,167.244z"/>
		</g>
	</g>
</g>
<g>
	<g>
		<rect x="87.757" y="117.687" fill="#FFFFFF" width="14" height="1"/>
		<rect x="87.757" y="135.687" fill="#FFFFFF" width="14" height="1"/>
		
			<rect x="83.813" y="126.653" transform="matrix(-0.5766 -0.817 0.817 -0.5766 45.4658 277.8112)" fill="#FFFFFF" width="21.803" height="0.945"/>
	</g>
	<g>
		<rect x="239.757" y="117.687" fill="#FFFFFF" width="14" height="1"/>
		<rect x="239.757" y="135.687" fill="#FFFFFF" width="14" height="1"/>
		
			<rect x="235.829" y="126.652" transform="matrix(-0.5766 -0.817 0.817 -0.5766 285.1331 402.0085)" fill="#FFFFFF" width="21.802" height="0.945"/>
	</g>
	<g>
		<rect x="141.757" y="117.687" fill="#FFFFFF" width="1" height="19"/>
		
			<rect x="137.805" y="126.735" transform="matrix(-0.5935 -0.8049 0.8049 -0.5935 134.639 322.4206)" fill="#FFFFFF" width="21.882" height="0.945"/>
		<rect x="154.757" y="117.687" fill="#FFFFFF" width="1" height="19"/>
	</g>
	<g>
		<rect x="123.757" y="117.687" fill="#FFFFFF" width="1" height="19"/>
		<rect x="136.757" y="117.687" fill="#FFFFFF" width="1" height="19"/>
		<rect x="123.757" y="126.687" fill="#FFFFFF" width="14" height="1"/>
	</g>
	<g>
		<rect x="105.757" y="117.687" fill="#FFFFFF" width="1" height="19"/>
		<rect x="105.757" y="117.687" fill="#FFFFFF" width="14" height="1"/>
		<rect x="105.757" y="135.687" fill="#FFFFFF" width="14" height="1"/>
	</g>
	<g>
		<rect x="159.757" y="117.687" fill="#FFFFFF" width="1" height="19"/>
		<rect x="159.757" y="117.687" fill="#FFFFFF" width="14" height="1"/>
		<rect x="159.757" y="135.687" fill="#FFFFFF" width="14" height="1"/>
		<rect x="159.757" y="126.687" fill="#FFFFFF" width="14" height="1"/>
	</g>
	<g>
		<rect x="203.757" y="117.687" fill="#FFFFFF" width="1" height="19"/>
		<rect x="203.757" y="117.687" fill="#FFFFFF" width="14" height="1"/>
		<rect x="203.757" y="135.687" fill="#FFFFFF" width="14" height="1"/>
		<rect x="203.757" y="126.687" fill="#FFFFFF" width="14" height="1"/>
	</g>
	<g>
		<rect x="187.757" y="117.687" fill="#FFFFFF" width="1" height="19"/>
		<rect x="185.757" y="117.687" fill="#FFFFFF" width="14" height="1"/>
		<rect x="185.757" y="135.687" fill="#FFFFFF" width="14" height="1"/>
		<rect x="198.757" y="117.687" fill="#FFFFFF" width="1" height="19"/>
	</g>
	<g>
		<rect x="221.757" y="117.687" fill="#FFFFFF" width="1" height="19"/>
		<rect x="221.757" y="117.687" fill="#FFFFFF" width="14" height="1"/>
		<rect x="221.757" y="126.687" fill="#FFFFFF" width="14" height="1"/>
		<rect x="234.757" y="117.687" fill="#FFFFFF" width="1" height="9"/>
		
			<rect x="224.143" y="131.202" transform="matrix(0.7071 0.7071 -0.7071 0.7071 160.6576 -124.5131)" fill="#FFFFFF" width="12.974" height="0.945"/>
	</g>
	<rect x="179.757" y="117.687" fill="#FFFFFF" width="1" height="19"/>
</g>
<g>
	<g>
		<rect x="123.757" y="145.687" fill="#FFFFFF" width="1" height="19"/>
		<rect x="123.757" y="145.687" fill="#FFFFFF" width="14" height="1"/>
		<rect x="123.757" y="163.687" fill="#FFFFFF" width="14" height="1"/>
	</g>
	<g>
		<rect x="141.757" y="145.687" fill="#FFFFFF" width="1" height="19"/>
		<rect x="154.757" y="145.687" fill="#FFFFFF" width="1" height="19"/>
		<rect x="141.757" y="154.687" fill="#FFFFFF" width="14" height="1"/>
	</g>
	<g>
		<rect x="105.757" y="145.687" fill="#FFFFFF" width="1" height="19"/>
		<rect x="105.757" y="145.687" fill="#FFFFFF" width="14" height="1"/>
		<rect x="105.757" y="163.687" fill="#FFFFFF" width="14" height="1"/>
		<rect x="105.757" y="154.687" fill="#FFFFFF" width="14" height="1"/>
	</g>
	<g>
		<rect x="94.757" y="145.687" fill="#FFFFFF" width="1" height="19"/>
		<rect x="87.757" y="145.687" fill="#FFFFFF" width="14" height="1"/>
	</g>
</g>
</svg>
