<?xml version="1.0" encoding="utf-8"?>
<!-- Generator: Adobe Illustrator 16.0.0, SVG Export Plug-In . SVG Version: 6.00 Build 0)  -->
<!DOCTYPE svg PUBLIC "-//W3C//DTD SVG 1.1//EN" "http://www.w3.org/Graphics/SVG/1.1/DTD/svg11.dtd">
<svg version="1.1" id="Layer_1" xmlns="http://www.w3.org/2000/svg" xmlns:xlink="http://www.w3.org/1999/xlink" x="0px" y="0px"
	 width="283.464px" height="283.464px" viewBox="0 0 283.464 283.464" enable-background="new 0 0 283.464 283.464"
	 xml:space="preserve">
<linearGradient id="SVGID_1_" gradientUnits="userSpaceOnUse" x1="72" y1="1019.269" x2="355.4644" y2="1019.269" gradientTransform="matrix(1 0 0 1 -72 -877.5361)">
	<stop  offset="0" style="stop-color:#2E368F"/>
	<stop  offset="1" style="stop-color:#2AAAE2"/>
</linearGradient>
<rect display="none" fill="url(#SVGID_1_)" width="283.464" height="283.464"/>
<g>
	
		<linearGradient id="SVGID_2_" gradientUnits="userSpaceOnUse" x1="-94.6523" y1="919.561" x2="-84.2593" y2="919.561" gradientTransform="matrix(-0.7071 0.7071 0.7071 0.7071 -656.6132 -444.8119)">
		<stop  offset="0" style="stop-color:#F59FBA"/>
		<stop  offset="1" style="stop-color:#EF5080"/>
	</linearGradient>
	<path fill="url(#SVGID_2_)" d="M53.188,145.83c2.109,2.106,5.461,2.17,7.491,0.143c2.029-2.03,1.967-5.384-0.142-7.491
		c-2.105-2.106-5.461-2.172-7.491-0.142C51.017,140.366,51.083,143.722,53.188,145.83z"/>
	<g>
		
			<linearGradient id="SVGID_3_" gradientUnits="userSpaceOnUse" x1="-91.1597" y1="911.8149" x2="-72.5845" y2="911.8149" gradientTransform="matrix(-0.7071 0.7071 0.7071 0.7071 -656.6132 -444.8119)">
			<stop  offset="0" style="stop-color:#F59FBA"/>
			<stop  offset="1" style="stop-color:#EF5080"/>
		</linearGradient>
		<path fill="url(#SVGID_3_)" d="M45.902,155.054l1.766-1.766c-6.135-6.137-6.027-16.226,0.242-22.494l-1.766-1.767
			C38.899,136.273,38.793,147.946,45.902,155.054z"/>
	</g>
	<g>
		
			<linearGradient id="SVGID_4_" gradientUnits="userSpaceOnUse" x1="-96.2544" y1="907.7358" x2="-60.354" y2="907.7358" gradientTransform="matrix(-0.7071 0.7071 0.7071 0.7071 -656.6132 -444.8119)">
			<stop  offset="0" style="stop-color:#F59FBA"/>
			<stop  offset="1" style="stop-color:#EF5080"/>
		</linearGradient>
		<path fill="url(#SVGID_4_)" d="M40.691,167.139l1.767-1.767c-13.105-13.105-13.175-34.365-0.152-47.388l-1.766-1.766
			C26.545,130.217,26.611,153.059,40.691,167.139z"/>
	</g>
	
		<linearGradient id="SVGID_5_" gradientUnits="userSpaceOnUse" x1="169.644" y1="617.5981" x2="180.0366" y2="617.5981" gradientTransform="matrix(0.7071 0.7071 -0.7071 0.7071 370.2557 -418.0736)">
		<stop  offset="0" style="stop-color:#F59FBA"/>
		<stop  offset="1" style="stop-color:#EF5080"/>
	</linearGradient>
	<path fill="url(#SVGID_5_)" d="M60.856,145.934c-2.107,2.106-5.461,2.17-7.49,0.142c-2.03-2.029-1.968-5.384,0.14-7.491
		c2.106-2.105,5.46-2.17,7.49-0.14C63.026,140.472,62.962,143.83,60.856,145.934z"/>
	<g>
		
			<linearGradient id="SVGID_6_" gradientUnits="userSpaceOnUse" x1="173.1401" y1="609.853" x2="191.7144" y2="609.853" gradientTransform="matrix(0.7071 0.7071 -0.7071 0.7071 370.2557 -418.0736)">
			<stop  offset="0" style="stop-color:#F59FBA"/>
			<stop  offset="1" style="stop-color:#EF5080"/>
		</linearGradient>
		<path fill="url(#SVGID_6_)" d="M68.144,155.16l-1.766-1.767c6.132-6.132,6.025-16.221-0.244-22.491l1.766-1.766
			C75.142,136.379,75.252,148.05,68.144,155.16z"/>
	</g>
	<g>
		
			<linearGradient id="SVGID_7_" gradientUnits="userSpaceOnUse" x1="168.0444" y1="605.7749" x2="203.9409" y2="605.7749" gradientTransform="matrix(0.7071 0.7071 -0.7071 0.7071 370.2557 -418.0736)">
			<stop  offset="0" style="stop-color:#F59FBA"/>
			<stop  offset="1" style="stop-color:#EF5080"/>
		</linearGradient>
		<path fill="url(#SVGID_7_)" d="M73.352,167.244l-1.766-1.766c13.106-13.105,13.172-34.363,0.151-47.384l1.766-1.766
			C87.497,130.325,87.433,153.164,73.352,167.244z"/>
	</g>
	<rect x="87.757" y="117.687" fill="#FFFFFF" width="14" height="1"/>
	<rect x="87.757" y="135.687" fill="#FFFFFF" width="14" height="1"/>
	
		<rect x="83.814" y="126.656" transform="matrix(0.5766 0.817 -0.817 0.5766 143.9664 -23.5596)" fill="#FFFFFF" width="21.803" height="0.945"/>
	<rect x="239.757" y="117.687" fill="#FFFFFF" width="14" height="1"/>
	<rect x="239.757" y="135.687" fill="#FFFFFF" width="14" height="1"/>
	
		<rect x="235.829" y="126.658" transform="matrix(0.5766 0.817 -0.817 0.5766 208.3354 -147.7575)" fill="#FFFFFF" width="21.801" height="0.945"/>
	<rect x="141.757" y="117.687" fill="#FFFFFF" width="1" height="19"/>
	
		<rect x="137.806" y="126.725" transform="matrix(0.5935 0.8049 -0.8049 0.5935 162.8471 -68.0108)" fill="#FFFFFF" width="21.883" height="0.945"/>
	<rect x="154.757" y="117.687" fill="#FFFFFF" width="1" height="19"/>
	<rect x="123.757" y="117.687" fill="#FFFFFF" width="1" height="19"/>
	<rect x="136.757" y="117.687" fill="#FFFFFF" width="1" height="19"/>
	<rect x="124.25" y="126.687" fill="#FFFFFF" width="13" height="0.929"/>
	<rect x="105.757" y="117.687" fill="#FFFFFF" width="1" height="19"/>
	<rect x="105.757" y="117.687" fill="#FFFFFF" width="14" height="1"/>
	<rect x="105.757" y="135.687" fill="#FFFFFF" width="14" height="1"/>
	<rect x="159.757" y="117.687" fill="#FFFFFF" width="1" height="19"/>
	<rect x="159.757" y="117.687" fill="#FFFFFF" width="14" height="1"/>
	<rect x="159.757" y="135.687" fill="#FFFFFF" width="14" height="1"/>
	<rect x="159.757" y="126.687" fill="#FFFFFF" width="14" height="1"/>
	<rect x="203.757" y="117.687" fill="#FFFFFF" width="1" height="19"/>
	<rect x="203.757" y="117.687" fill="#FFFFFF" width="14" height="1"/>
	<rect x="203.757" y="135.687" fill="#FFFFFF" width="14" height="1"/>
	<rect x="203.757" y="126.687" fill="#FFFFFF" width="14" height="1"/>
	<rect x="187.757" y="117.687" fill="#FFFFFF" width="1" height="19"/>
	<rect x="185.757" y="117.687" fill="#FFFFFF" width="14" height="1"/>
	<rect x="185.757" y="135.687" fill="#FFFFFF" width="14" height="1"/>
	<rect x="198.757" y="117.687" fill="#FFFFFF" width="1" height="19"/>
	<rect x="221.757" y="117.687" fill="#FFFFFF" width="1" height="19"/>
	<rect x="221.757" y="117.687" fill="#FFFFFF" width="14" height="1"/>
	<rect x="221.757" y="126.687" fill="#FFFFFF" width="14" height="1"/>
	<rect x="234.757" y="117.687" fill="#FFFFFF" width="1" height="9"/>
	
		<rect x="224.143" y="131.2" transform="matrix(-0.7071 -0.7071 0.7071 -0.7071 300.6026 387.8584)" fill="#FFFFFF" width="12.974" height="0.945"/>
	<rect x="179.757" y="117.687" fill="#FFFFFF" width="1" height="19"/>
	<rect x="123.757" y="145.687" fill="#FFFFFF" width="1" height="19"/>
	<rect x="123.757" y="145.687" fill="#FFFFFF" width="14" height="1"/>
	<rect x="123.757" y="163.687" fill="#FFFFFF" width="14" height="1"/>
	<rect x="141.757" y="145.687" fill="#FFFFFF" width="1" height="19"/>
	<rect x="154.757" y="145.687" fill="#FFFFFF" width="1" height="19"/>
	<rect x="141.757" y="154.687" fill="#FFFFFF" width="14" height="1"/>
	<rect x="105.757" y="145.687" fill="#FFFFFF" width="1" height="19"/>
	<rect x="105.757" y="145.687" fill="#FFFFFF" width="14" height="1"/>
	<rect x="105.757" y="163.687" fill="#FFFFFF" width="14" height="1"/>
	<rect x="105.757" y="154.687" fill="#FFFFFF" width="14" height="1"/>
	<rect x="94.757" y="145.687" fill="#FFFFFF" width="1" height="19"/>
	<rect x="87.757" y="145.687" fill="#FFFFFF" width="14" height="1"/>
</g>
</svg>
